<svg xmlns="http://www.w3.org/2000/svg" width="163.839" height="163.839" fill-rule="evenodd" clip-rule="evenodd" image-rendering="optimizeQuality" shape-rendering="geometricPrecision" text-rendering="geometricPrecision" viewBox="0 0 1707 1707" id="world">
  <defs>
    <linearGradient id="a" x1="-69.815" x2="1776.48" y1="84.043" y2="1622.62" gradientUnits="userSpaceOnUse">
      <stop offset="0" stop-color="#08b6ff"></stop>
      <stop offset=".012" stop-color="#2790ff"></stop>
      <stop offset=".259" stop-color="#47c7ff"></stop>
      <stop offset=".478" stop-color="#4cc9ff"></stop>
      <stop offset=".8" stop-color="#4a9eff"></stop>
      <stop offset=".929" stop-color="#466aff"></stop>
      <stop offset="1" stop-color="#466aff"></stop>
    </linearGradient>
  </defs>
  <path fill="url(#a)" d="M853 1707c-228,0 -442,-89 -603,-250 -29,-29 -55,-59 -79,-91l311 0c12,31 26,59 40,87 88,163 205,254 331,254zm-706 -374c-92,-136 -144,-295 -147,-463l389 0c2,168 30,327 80,463l-322 0zm-147 -496c3,-168 55,-328 147,-463l322 0c-50,135 -78,295 -80,463l-389 0zm171 -497c24,-31 50,-62 79,-90 161,-161 375,-250 603,-250 126,0 244,90 331,254 15,27 28,56 41,86l310 0c-24,-31 -50,-62 -78,-90 -161,-161 -376,-250 -604,-250 -126,0 -243,90 -331,254 -14,27 -28,56 -40,86l-311 0zm1388 34c93,135 144,295 147,463l-389 0c-1,-168 -29,-328 -79,-463l321 0zm147 496c-3,168 -54,327 -147,463l-321 0c50,-136 78,-295 79,-463l389 0zm-171 496c-24,32 -50,62 -78,91 -161,161 -376,250 -604,250 126,0 244,-91 331,-254 15,-28 28,-56 41,-87l310 0zm-251 -496l-861 0c1,169 30,329 82,463l697 0c52,-134 80,-294 82,-463zm-861 -33l861 0c-2,-169 -30,-329 -82,-463l-697 0c-52,134 -81,294 -82,463zm766 529l-671 0c10,25 22,49 34,71 81,152 188,236 301,236 113,0 221,-84 302,-236 12,-22 23,-46 34,-71zm-336 -1333c-113,0 -220,84 -301,237 -12,22 -24,46 -34,70l671 0c-11,-24 -22,-48 -34,-70 -81,-153 -189,-237 -302,-237z"></path>
</svg>
